<?xml version="1.0" encoding="utf-8"?>
<!-- Generator: Adobe Illustrator 16.0.0, SVG Export Plug-In . SVG Version: 6.00 Build 0)  -->
<!DOCTYPE svg PUBLIC "-//W3C//DTD SVG 1.1//EN" "http://www.w3.org/Graphics/SVG/1.1/DTD/svg11.dtd">
<svg version="1.1" id="Layer_1" xmlns="http://www.w3.org/2000/svg" xmlns:xlink="http://www.w3.org/1999/xlink" x="0px" y="0px"
	 width="1164.003px" height="348.313px" viewBox="12.094 0 1164.003 348.313" enable-background="new 12.094 0 1164.003 348.313"
	 xml:space="preserve">
<g>
	<path fill="#FFFFFF" d="M849.376,0.299c-4.704,8.324-9.014,16.094-13.462,23.782c-14.43,24.965-28.702,50.024-43.454,74.795
		c-9.008,15.12-22.896,23.038-40.461,23.357c-21.838,0.4-43.68,0.095-65.527,0.103c-1.373,0-2.771-0.063-4.131,0.129
		c-11.721,1.665-16.106,10.791-10.104,21.656c6.177,11.195,12.741,22.176,19.132,33.248c4.833,8.363,9.693,16.702,14.464,25.091
		c1.216,2.138,2.141,4.434,3.551,7.384c-2.053,0-3.373,0-4.688,0c-60.378,0-120.751-0.018-181.129,0.055
		c-2.835,0.003-4.188-0.76-5.589-3.461c-3.518-6.771-7.8-13.144-11.678-19.732c-8.264-14.048-16.952-27.875-24.545-42.276
		c-7.748-14.69-7.723-30.18,0.396-44.713c14.364-25.717,29.17-51.201,44.286-76.486c9.125-15.268,23.428-23.053,41.048-23.095
		c92.632-0.225,185.268-0.104,277.899-0.096C846.487,0.04,847.583,0.178,849.376,0.299z"/>
	<path fill="#FFFFFF" d="M1176.098,0.33c-4.578,8.102-8.874,15.846-13.303,23.511c-14.489,25.082-28.799,50.269-43.63,75.144
		c-8.931,14.98-22.765,22.878-40.165,23.237c-22.087,0.452-44.186,0.096-66.282,0.134c-1.858,0.003-3.762,0.177-5.577,0.586
		c-9.175,2.056-13.107,9.102-9.621,17.839c1.668,4.159,4.113,8.021,6.356,11.93c9.495,16.526,19.063,33.007,28.558,49.537
		c1.283,2.233,2.255,4.646,3.666,7.596c-2.101,0-3.443,0-4.788,0c-60.132,0-120.269-0.025-180.401,0.063
		c-3.243,0.003-5.079-0.611-6.385-3.997c-1.471-3.806-4.119-7.146-6.223-10.707c-9.838-16.619-20.07-33.011-29.358-49.931
		c-8.225-14.965-8.275-30.797,0.041-45.712c14.351-25.732,29.134-51.233,44.295-76.494c9.151-15.233,23.516-22.902,41.151-22.94
		c92.646-0.199,185.298-0.094,277.947-0.082C1173.469,0.042,1174.555,0.205,1176.098,0.33z"/>
	<path fill="#FFFFFF" d="M94.097,209.627c8.868-15.354,17.329-30.002,25.784-44.652c26.893-46.577,53.776-93.163,80.674-139.738
		c9.626-16.67,24.335-25.093,43.341-25.128c92.381-0.172,184.763-0.078,277.144-0.078c1.228,0,2.456,0,4.487,0
		c-0.914,1.794-1.444,2.973-2.09,4.084c-18.645,31.946-37.031,64.041-56.066,95.753c-8.486,14.145-21.92,22.008-38.38,22.26
		c-36.144,0.55-72.301-0.059-108.446,0.311c-17.442,0.177-31.186,8.338-40.169,23.214c-12.179,20.173-23.716,40.738-35.397,61.206
		c-1.311,2.296-2.763,3.035-5.312,3.031c-47.069-0.065-94.141-0.047-141.209-0.055C97.245,209.837,96.037,209.724,94.097,209.627z"
		/>
	<path fill="#FFFFFF" d="M711.825,225.844c-0.277,8.404-1.632,16.051-5.709,23.072c-14.802,25.486-29.312,51.143-44.438,76.428
		c-8.729,14.596-22.42,22.699-39.288,22.762c-93.538,0.33-187.072,0.158-280.607,0.158c-0.749,0-1.499,0-2.787,0
		c0.585-1.238,0.961-2.205,1.473-3.104c18.547-32.154,36.85-64.455,55.775-96.387c8.583-14.479,22.284-21.541,39.001-22.74
		c0.379-0.031,0.757-0.003,1.135-0.003c90.396-0.063,180.789-0.125,271.184-0.186C708.911,225.844,710.265,225.844,711.825,225.844z
		"/>
	<path fill="#FFFFFF" d="M12.094,348.262c7.724-13.396,15.035-26.093,22.357-38.783c11.467-19.863,22.763-39.84,34.472-59.562
		c9.071-15.28,22.95-23.695,40.617-23.761c90.356-0.337,180.713-0.252,271.071-0.313c1.25,0,2.5,0,4.272,0
		c0.528,8.212-1.257,15.704-5.175,22.692c-4.722,8.42-9.603,16.748-14.441,25.096c-9.878,17.025-19.568,34.158-29.718,51.02
		c-9.171,15.232-23.108,23.455-40.779,23.502c-92.746,0.24-185.489,0.111-278.234,0.111
		C15.308,348.262,14.077,348.262,12.094,348.262z"/>
	<path fill="#FFFFFF" d="M1038.264,225.844c0.267,8.211-1.177,15.639-5.08,22.416c-14.95,25.961-29.656,52.076-45.147,77.719
		c-8.526,14.115-22.092,22.056-38.501,22.117c-93.628,0.353-187.255,0.168-280.891,0.168c-0.827,0-1.66,0-3.065,0
		c1.269-2.332,2.223-4.188,3.271-6.004c17.546-30.402,35.039-60.834,52.675-91.182c9.632-16.578,24.255-24.983,43.369-25.014
		c89.484-0.145,178.973-0.159,268.456-0.22C1034.85,225.844,1036.346,225.844,1038.264,225.844z"/>
	<g>
		<path stroke="#000000" stroke-width="1.2" d="M46.134,406.982c-1.172-5.136-3.347-8.796-6.529-10.97
			c-3.18-2.176-7.338-3.266-12.473-3.266c-3.626,0-6.75,0.729-9.373,2.176c-2.625,1.453-4.784,3.406-6.486,5.861
			c-1.705,2.455-2.958,5.287-3.767,8.492c-0.81,3.215-1.214,6.604-1.214,10.178c0,3.344,0.348,6.637,1.047,9.871
			c0.698,3.235,1.854,6.127,3.473,8.664c1.618,2.539,3.795,4.596,6.527,6.151c2.736,1.564,6.166,2.343,10.295,2.343
			c2.566,0,4.911-0.416,7.031-1.254c2.12-0.841,3.977-1.992,5.568-3.476c1.589-1.479,2.927-3.221,4.015-5.231
			c1.089-2.005,1.91-4.209,2.471-6.609h5.943c-0.672,2.904-1.646,5.65-2.928,8.244c-1.285,2.596-2.975,4.871-5.067,6.821
			c-2.091,1.957-4.631,3.505-7.617,4.644c-2.987,1.145-6.486,1.717-10.504,1.717c-4.633,0-8.592-0.852-11.885-2.547
			c-3.293-1.703-5.984-4.01-8.078-6.906c-2.092-2.901-3.614-6.266-4.561-10.088c-0.95-3.822-1.423-7.881-1.423-12.178
			c0-5.752,0.709-10.633,2.132-14.648c1.425-4.02,3.393-7.295,5.904-9.838c2.511-2.534,5.466-4.381,8.871-5.524
			c3.403-1.142,7.113-1.713,11.131-1.713c3.068,0,5.929,0.408,8.581,1.211c2.648,0.809,4.994,2.026,7.029,3.643
			c2.039,1.623,3.712,3.615,5.021,5.986c1.311,2.366,2.221,5.118,2.721,8.243h-5.855V406.982z"/>
		<path stroke="#000000" stroke-width="1.2" d="M63.792,449.753v-60.269h5.022v60.269H63.792z"/>
		<path stroke="#000000" stroke-width="1.2" d="M84.719,429.246c0,2.344,0.307,4.561,0.918,6.647c0.614,2.099,1.521,3.91,2.72,5.445
			c1.203,1.533,2.721,2.76,4.563,3.687c1.84,0.926,3.961,1.381,6.36,1.381c3.293,0,6.11-0.869,8.456-2.601
			c2.34-1.731,3.904-4.184,4.687-7.362h5.605c-0.611,2.063-1.421,3.973-2.426,5.733c-1.004,1.754-2.26,3.289-3.765,4.603
			c-1.506,1.313-3.295,2.334-5.36,3.059c-2.063,0.721-4.463,1.082-7.197,1.082c-3.459,0-6.444-0.58-8.955-1.752
			c-2.511-1.17-4.575-2.775-6.196-4.814c-1.619-2.036-2.816-4.436-3.599-7.194c-0.782-2.762-1.171-5.736-1.171-8.92
			c0-3.177,0.462-6.158,1.381-8.955c0.923-2.789,2.232-5.232,3.934-7.318c1.701-2.098,3.781-3.738,6.239-4.944
			c2.454-1.195,5.243-1.796,8.367-1.796c5.972,0,10.658,2.054,14.062,6.152c3.404,4.103,5.079,10.057,5.022,17.869L84.719,429.246
			L84.719,429.246z M113.008,425.06c0-2.114-0.291-4.11-0.878-5.981c-0.584-1.871-1.45-3.486-2.595-4.855
			c-1.145-1.373-2.58-2.461-4.311-3.264c-1.73-0.811-3.71-1.217-5.943-1.217c-2.233,0-4.199,0.416-5.901,1.254
			c-1.702,0.834-3.151,1.959-4.352,3.354c-1.201,1.392-2.164,3.011-2.887,4.854c-0.726,1.84-1.199,3.797-1.423,5.856L113.008,425.06
			L113.008,425.06z"/>
		<path stroke="#000000" stroke-width="1.2" d="M123.554,406.392h5.441l14.062,37.168l14.063-37.168h5.441l-16.824,43.361h-5.609
			L123.554,406.392z"/>
		<path stroke="#000000" stroke-width="1.2" d="M173.108,429.246c0,2.344,0.306,4.561,0.92,6.647
			c0.612,2.099,1.519,3.91,2.721,5.445c1.2,1.533,2.721,2.76,4.561,3.687c1.843,0.926,3.963,1.381,6.36,1.381
			c3.293,0,6.109-0.869,8.456-2.601c2.343-1.731,3.906-4.184,4.687-7.362h5.607c-0.613,2.063-1.423,3.973-2.427,5.733
			c-1.003,1.754-2.262,3.289-3.765,4.603c-1.507,1.313-3.295,2.334-5.358,3.059c-2.064,0.721-4.465,1.082-7.2,1.082
			c-3.458,0-6.444-0.58-8.955-1.752c-2.511-1.17-4.574-2.775-6.193-4.814c-1.621-2.036-2.82-4.436-3.599-7.194
			c-0.783-2.762-1.171-5.736-1.171-8.92c0-3.177,0.459-6.158,1.378-8.955c0.923-2.789,2.232-5.232,3.934-7.318
			c1.701-2.098,3.781-3.738,6.238-4.944c2.455-1.195,5.244-1.796,8.368-1.796c5.973,0,10.661,2.054,14.062,6.152
			c3.407,4.103,5.079,10.057,5.023,17.869L173.108,429.246L173.108,429.246z M201.398,425.06c0-2.114-0.292-4.11-0.88-5.981
			c-0.584-1.871-1.451-3.486-2.595-4.855c-1.145-1.373-2.58-2.461-4.309-3.264c-1.732-0.811-3.713-1.217-5.945-1.217
			c-2.233,0-4.198,0.416-5.899,1.254c-1.702,0.834-3.152,1.959-4.353,3.354c-1.202,1.392-2.164,3.011-2.886,4.854
			c-0.727,1.84-1.201,3.797-1.423,5.856L201.398,425.06L201.398,425.06z"/>
		<path stroke="#000000" stroke-width="1.2" d="M221.822,449.753h-5.021v-43.361h5.021v8.117h0.167
			c1.396-3.457,3.195-5.869,5.4-7.233c2.202-1.367,5.12-2.054,8.746-2.054v5.443c-2.844-0.055-5.19,0.387-7.032,1.336
			c-1.839,0.953-3.304,2.232-4.393,3.848c-1.088,1.617-1.842,3.531-2.26,5.736c-0.418,2.201-0.627,4.506-0.627,6.9L221.822,449.753
			L221.822,449.753z"/>
		<path d="M276.02,431.753c0.222,2.68,0.822,4.953,1.798,6.826c0.977,1.869,2.233,3.387,3.768,4.561
			c1.532,1.168,3.306,2.021,5.315,2.554c2.009,0.53,4.156,0.793,6.444,0.793c2.678,0,4.994-0.334,6.947-1.009
			c1.954-0.665,3.542-1.565,4.771-2.715c1.228-1.145,2.136-2.471,2.721-3.979c0.587-1.506,0.88-3.101,0.88-4.771
			c0-2.342-0.533-4.241-1.59-5.69c-1.063-1.449-2.442-2.636-4.144-3.56c-1.702-0.92-3.655-1.655-5.857-2.221
			c-2.206-0.555-4.465-1.098-6.78-1.629c-2.317-0.529-4.578-1.156-6.782-1.883c-2.205-0.729-4.157-1.705-5.858-2.933
			c-1.704-1.225-3.085-2.801-4.143-4.729c-1.063-1.926-1.591-4.369-1.591-7.328c0-2.063,0.431-4.068,1.297-6.02
			c0.863-1.957,2.148-3.688,3.849-5.191c1.702-1.508,3.836-2.707,6.404-3.603c2.567-0.893,5.525-1.336,8.871-1.336
			c3.405,0,6.376,0.476,8.915,1.42c2.54,0.957,4.647,2.25,6.319,3.896c1.676,1.643,2.93,3.555,3.769,5.73
			c0.835,2.174,1.254,4.487,1.254,6.948h-5.438c0-2.289-0.405-4.274-1.214-5.942c-0.811-1.676-1.911-3.049-3.306-4.102
			c-1.395-1.063-2.986-1.847-4.771-2.349c-1.786-0.498-3.628-0.754-5.526-0.754c-2.903,0-5.343,0.403-7.323,1.213
			c-1.98,0.817-3.556,1.856-4.729,3.141c-1.171,1.283-1.981,2.707-2.426,4.269c-0.447,1.565-0.531,3.127-0.253,4.69
			c0.336,1.953,1.118,3.515,2.346,4.687c1.226,1.17,2.733,2.133,4.519,2.887c1.785,0.756,3.751,1.369,5.899,1.844
			c2.149,0.476,4.342,0.978,6.574,1.513c2.229,0.526,4.392,1.149,6.486,1.879c2.092,0.727,3.946,1.701,5.565,2.934
			c1.621,1.221,2.918,2.801,3.892,4.726c0.978,1.926,1.466,4.342,1.466,7.239c0,5.58-1.925,9.906-5.774,12.972
			c-3.849,3.069-9.262,4.604-16.239,4.604c-3.125,0-6.025-0.401-8.703-1.207c-2.678-0.809-4.995-2.043-6.948-3.686
			c-1.954-1.646-3.473-3.687-4.561-6.109c-1.09-2.426-1.633-5.289-1.633-8.584h5.521V431.753z"/>
		<path d="M341.307,450.917c-2.792-0.051-5.398-0.553-7.824-1.504c-2.432-0.947-4.552-2.369-6.364-4.266
			c-1.813-1.897-3.252-4.275-4.31-7.115c-1.061-2.849-1.592-6.17-1.592-9.957c0-3.188,0.419-6.158,1.257-8.914
			c0.835-2.767,2.093-5.178,3.768-7.246c1.676-2.063,3.767-3.691,6.276-4.898c2.512-1.194,5.441-1.795,8.79-1.795
			c3.403,0,6.36,0.601,8.872,1.795c2.513,1.207,4.604,2.826,6.277,4.855c1.675,2.039,2.915,4.451,3.725,7.242
			c0.81,2.789,1.213,5.772,1.213,8.961c0,3.461-0.474,6.58-1.423,9.373c-0.946,2.789-2.302,5.184-4.057,7.194
			c-1.76,2.011-3.881,3.562-6.364,4.646C347.068,450.382,344.318,450.917,341.307,450.917z M356.039,428.078
			c0-2.572-0.282-4.967-0.839-7.199c-0.563-2.229-1.422-4.176-2.595-5.82c-1.174-1.644-2.68-2.94-4.521-3.891
			c-1.84-0.953-4.099-1.424-6.777-1.424c-2.625,0-4.872,0.518-6.736,1.551c-1.871,1.031-3.394,2.396-4.563,4.098
			c-1.172,1.703-2.039,3.654-2.596,5.861c-0.56,2.205-0.836,4.475-0.836,6.824c0,2.672,0.319,5.141,0.962,7.406
			c0.642,2.258,1.576,4.192,2.804,5.813c1.228,1.619,2.763,2.877,4.604,3.766c1.842,0.896,3.963,1.345,6.362,1.345
			c2.621,0,4.865-0.521,6.735-1.552c1.87-1.03,3.391-2.411,4.563-4.139c1.173-1.731,2.032-3.686,2.595-5.861
			C355.757,432.679,356.039,430.416,356.039,428.078z"/>
		<path d="M366.248,410.582v-4.189h6.444v-6.86c0-3.461,0.696-6.195,2.096-8.203c1.392-2.011,3.765-3.015,7.112-3.015
			c0.781,0,1.51,0.027,2.178,0.09c0.668,0.056,1.338,0.14,2.007,0.244v4.609c-1.115-0.283-2.119-0.424-3.011-0.424
			c-1.285,0-2.289,0.232-3.016,0.711c-0.725,0.479-1.254,1.102-1.592,1.889c-0.334,0.777-0.544,1.658-0.625,2.638
			c-0.084,0.975-0.125,1.965-0.125,2.971v5.354h8.367v4.188h-8.367v39.174h-5.024v-39.174h-6.444V410.582z"/>
		<path d="M409.105,449.919c-0.616,0.111-1.425,0.307-2.429,0.582c-1.003,0.279-2.124,0.416-3.347,0.416
			c-2.513,0-4.424-0.623-5.737-1.879c-1.309-1.254-1.966-3.504-1.966-6.736V410.58h-6.109v-4.188h6.109v-12.053h5.025v12.053h8.117
			v4.189h-8.117v29.713c0,1.059,0.021,1.979,0.083,2.762c0.055,0.781,0.219,1.425,0.501,1.927c0.277,0.498,0.711,0.862,1.299,1.088
			c0.585,0.225,1.407,0.336,2.465,0.336c0.674,0,1.354-0.058,2.052-0.168c0.698-0.111,1.381-0.248,2.054-0.422V449.919
			L409.105,449.919z"/>
		<path d="M453.803,443.054l11.38-36.662h5.108l-14.063,43.361h-5.357l-9.459-36.414h-0.169l-9.624,36.414h-6.026l-13.222-43.361
			h5.021l11.217,36.998l10.044-36.998h5.605L453.803,443.054z"/>
		<path d="M497.489,424.476c0.952-0.114,2.08-0.276,3.393-0.504c1.311-0.223,2.385-0.53,3.216-0.92
			c0.84-0.391,1.355-1.045,1.552-1.971c0.198-0.922,0.295-1.771,0.295-2.551c0-2.572-0.821-4.674-2.473-6.322
			c-1.646-1.641-4.42-2.467-8.327-2.467c-1.727,0-3.32,0.153-4.771,0.459c-1.452,0.309-2.72,0.838-3.809,1.596
			c-1.086,0.748-1.979,1.754-2.676,3.01c-0.698,1.254-1.16,2.834-1.386,4.728H477.4c0.168-2.564,0.749-4.754,1.756-6.568
			c1.007-1.815,2.306-3.291,3.895-4.434c1.587-1.146,3.435-1.982,5.523-2.515c2.094-0.526,4.31-0.795,6.654-0.795
			c2.176,0,4.225,0.232,6.151,0.713c1.926,0.476,3.596,1.224,5.022,2.261c1.418,1.03,2.54,2.418,3.344,4.141
			c0.814,1.732,1.216,3.854,1.216,6.367v23.602c0,1.951,0.348,3.193,1.048,3.724c0.694,0.535,2.104,0.403,4.227-0.377v3.934
			c-0.39,0.115-0.959,0.283-1.715,0.508c-0.755,0.217-1.491,0.33-2.219,0.33c-0.784,0-1.54-0.082-2.258-0.25
			c-0.838-0.108-1.509-0.377-2.015-0.795c-0.501-0.42-0.903-0.924-1.209-1.51c-0.309-0.58-0.518-1.226-0.629-1.916
			c-0.114-0.703-0.169-1.445-0.169-2.229c-2.12,2.349-4.549,4.138-7.279,5.361c-2.732,1.223-5.692,1.836-8.875,1.836
			c-1.896,0-3.725-0.248-5.482-0.748c-1.756-0.504-3.304-1.279-4.644-2.342c-1.345-1.062-2.399-2.361-3.186-3.896
			c-0.778-1.528-1.168-3.362-1.168-5.481c0-7.365,5.046-11.717,15.148-13.058L497.489,424.476z M505.944,426.988
			c-2.12,0.885-4.271,1.475-6.448,1.758c-2.176,0.27-4.352,0.5-6.527,0.668c-3.846,0.271-6.851,1.145-8.998,2.596
			c-2.147,1.449-3.225,3.656-3.225,6.611c0,1.34,0.269,2.496,0.798,3.471c0.533,0.979,1.228,1.791,2.09,2.433
			c0.869,0.641,1.87,1.118,3.016,1.428c1.145,0.305,2.307,0.455,3.476,0.455c2.008,0,3.962-0.254,5.86-0.756
			c1.895-0.5,3.586-1.267,5.063-2.298c1.481-1.036,2.667-2.348,3.562-3.936c0.887-1.594,1.337-3.473,1.337-5.652L505.944,426.988
			L505.944,426.988z"/>
		<path d="M529.382,449.753h-5.021v-43.361h5.021v8.117h0.169c1.396-3.457,3.193-5.869,5.396-7.233
			c2.207-1.367,5.119-2.054,8.751-2.054v5.443c-2.852-0.055-5.19,0.387-7.036,1.336c-1.839,0.953-3.303,2.232-4.395,3.848
			c-1.086,1.617-1.839,3.531-2.259,5.736c-0.419,2.201-0.629,4.506-0.629,6.9L529.382,449.753L529.382,449.753z"/>
		<path d="M555.083,429.246c0,2.344,0.305,4.561,0.918,6.647c0.612,2.099,1.521,3.91,2.721,5.445c1.199,1.533,2.722,2.76,4.56,3.687
			c1.847,0.926,3.967,1.381,6.366,1.381c3.289,0,6.11-0.869,8.447-2.601c2.35-1.731,3.911-4.184,4.692-7.362h5.607
			c-0.618,2.063-1.427,3.973-2.429,5.733c-1.004,1.754-2.263,3.289-3.77,4.603c-1.504,1.313-3.289,2.334-5.355,3.059
			c-2.066,0.721-4.463,1.082-7.196,1.082c-3.465,0-6.446-0.58-8.955-1.752c-2.515-1.17-4.575-2.775-6.193-4.814
			c-1.623-2.036-2.822-4.436-3.6-7.194c-0.78-2.762-1.178-5.736-1.178-8.92c0-3.177,0.46-6.158,1.387-8.955
			c0.922-2.789,2.228-5.232,3.936-7.318c1.701-2.098,3.778-3.738,6.233-4.944c2.456-1.195,5.243-1.796,8.37-1.796
			c5.968,0,10.657,2.054,14.061,6.152c3.402,4.103,5.081,10.057,5.023,17.869L555.083,429.246L555.083,429.246z M583.374,425.06
			c0-2.114-0.295-4.11-0.879-5.981c-0.588-1.871-1.453-3.486-2.596-4.855c-1.146-1.373-2.585-2.461-4.312-3.264
			c-1.731-0.811-3.717-1.217-5.943-1.217c-2.233,0-4.198,0.416-5.9,1.254c-1.705,0.834-3.155,1.959-4.354,3.354
			c-1.198,1.392-2.165,3.011-2.892,4.854c-0.724,1.84-1.202,3.797-1.418,5.856L583.374,425.06L583.374,425.06z"/>
		<path d="M624.889,431.753c0.221,2.68,0.82,4.953,1.797,6.826c0.977,1.869,2.23,3.387,3.765,4.561
			c1.54,1.168,3.312,2.021,5.319,2.554c2.009,0.531,4.152,0.793,6.441,0.793c2.681,0,4.998-0.334,6.945-1.009
			c1.952-0.665,3.547-1.565,4.773-2.715c1.225-1.145,2.134-2.471,2.723-3.979c0.583-1.506,0.878-3.101,0.878-4.771
			c0-2.342-0.529-4.241-1.592-5.69c-1.061-1.449-2.443-2.636-4.146-3.56c-1.702-0.92-3.651-1.655-5.861-2.221
			c-2.2-0.555-4.465-1.098-6.776-1.629c-2.313-0.529-4.572-1.156-6.778-1.883c-2.203-0.729-4.16-1.705-5.859-2.933
			c-1.703-1.225-3.08-2.801-4.145-4.729c-1.059-1.926-1.589-4.369-1.589-7.328c0-2.063,0.432-4.068,1.299-6.02
			c0.862-1.957,2.146-3.688,3.85-5.191c1.7-1.508,3.84-2.707,6.403-3.603c2.563-0.893,5.523-1.336,8.871-1.336
			c3.4,0,6.372,0.476,8.918,1.42c2.538,0.957,4.643,2.25,6.318,3.896c1.671,1.643,2.925,3.555,3.766,5.73
			c0.838,2.174,1.258,4.487,1.258,6.948h-5.441c0-2.289-0.406-4.274-1.216-5.942c-0.81-1.676-1.912-3.049-3.306-4.102
			c-1.396-1.063-2.985-1.847-4.771-2.349c-1.789-0.498-3.628-0.754-5.523-0.754c-2.9,0-5.34,0.403-7.324,1.213
			c-1.98,0.817-3.554,1.856-4.729,3.141c-1.174,1.283-1.979,2.707-2.431,4.269c-0.44,1.565-0.532,3.127-0.249,4.69
			c0.336,1.953,1.115,3.515,2.345,4.687c1.229,1.17,2.731,2.133,4.521,2.887c1.78,0.756,3.749,1.369,5.899,1.844
			c2.146,0.476,4.335,0.978,6.57,1.513c2.229,0.526,4.393,1.149,6.485,1.879c2.09,0.727,3.944,1.701,5.563,2.934
			c1.619,1.221,2.921,2.801,3.896,4.726c0.971,1.926,1.465,4.342,1.465,7.239c0,5.58-1.925,9.906-5.779,12.972
			c-3.847,3.069-9.264,4.604-16.235,4.604c-3.124,0-6.024-0.401-8.703-1.207c-2.679-0.809-4.998-2.043-6.95-3.686
			c-1.955-1.646-3.471-3.687-4.56-6.109c-1.088-2.426-1.631-5.289-1.631-8.584h5.525V431.753z"/>
		<path d="M690.173,450.917c-2.797-0.051-5.401-0.553-7.829-1.504c-2.428-0.947-4.552-2.369-6.358-4.266
			c-1.813-1.896-3.255-4.275-4.313-7.115c-1.063-2.849-1.59-6.17-1.59-9.957c0-3.188,0.419-6.158,1.252-8.914
			c0.838-2.767,2.095-5.178,3.771-7.246c1.672-2.063,3.768-3.691,6.276-4.898c2.513-1.194,5.438-1.795,8.791-1.795
			c3.401,0,6.359,0.601,8.868,1.795c2.513,1.207,4.605,2.826,6.277,4.855c1.677,2.039,2.917,4.451,3.726,7.242
			c0.81,2.789,1.216,5.772,1.216,8.961c0,3.461-0.475,6.58-1.427,9.373c-0.943,2.789-2.298,5.184-4.055,7.194
			s-3.887,3.562-6.362,4.646C695.931,450.382,693.185,450.917,690.173,450.917z M704.902,428.078c0-2.572-0.277-4.967-0.841-7.199
			c-0.557-2.229-1.419-4.176-2.591-5.82c-1.176-1.645-2.681-2.94-4.521-3.891c-1.845-0.953-4.104-1.424-6.778-1.424
			c-2.625,0-4.869,0.518-6.739,1.551c-1.871,1.031-3.393,2.396-4.563,4.098c-1.172,1.703-2.038,3.654-2.595,5.861
			c-0.559,2.205-0.84,4.475-0.84,6.824c0,2.672,0.322,5.141,0.966,7.406c0.642,2.258,1.575,4.192,2.8,5.813
			c1.232,1.619,2.764,2.877,4.607,3.766c1.841,0.896,3.959,1.345,6.361,1.345c2.621,0,4.867-0.521,6.737-1.552
			c1.864-1.03,3.386-2.411,4.562-4.139c1.172-1.731,2.034-3.686,2.592-5.861C704.625,432.679,704.902,430.416,704.902,428.078z"/>
		<path d="M720.221,449.753v-60.269h5.021v60.269H720.221z"/>
		<path d="M767.428,406.392h5.021v43.361h-5.021v-6.033c-0.671,0.783-1.423,1.597-2.259,2.433c-0.839,0.838-1.797,1.604-2.888,2.301
			c-1.088,0.699-2.36,1.283-3.813,1.762c-1.448,0.476-3.12,0.705-5.021,0.705c-2.898,0-5.327-0.4-7.278-1.209
			c-1.958-0.807-3.53-1.941-4.729-3.391c-1.199-1.451-2.066-3.138-2.598-5.064c-0.533-1.924-0.793-4.029-0.793-6.318v-28.543h5.021
			v28.464c0,3.739,0.866,6.594,2.598,8.573c1.729,1.986,4.574,2.976,8.536,2.976c2.064,0,3.919-0.404,5.566-1.213
			c1.643-0.81,3.025-1.939,4.14-3.388c1.12-1.453,1.982-3.186,2.595-5.194c0.617-2.009,0.923-4.213,0.923-6.613L767.428,406.392
			L767.428,406.392z"/>
		<path d="M799.824,449.919c-0.618,0.111-1.428,0.307-2.437,0.582c-0.998,0.279-2.121,0.416-3.344,0.416
			c-2.509,0-4.427-0.623-5.731-1.879c-1.313-1.254-1.968-3.504-1.968-6.736V410.58h-6.11v-4.188h6.11v-12.053h5.022v12.053h8.116
			v4.189h-8.116v29.713c0,1.059,0.021,1.979,0.079,2.762c0.059,0.781,0.227,1.425,0.501,1.927c0.279,0.498,0.716,0.862,1.298,1.088
			c0.59,0.225,1.411,0.336,2.473,0.336c0.672,0,1.35-0.058,2.049-0.168c0.702-0.111,1.378-0.248,2.058-0.422V449.919z"/>
		<path d="M808.359,396.935v-7.448h5.521v7.448H808.359z M808.609,449.753v-43.361h5.021v43.361H808.609z"/>
		<path d="M843.682,450.917c-2.795-0.051-5.399-0.553-7.825-1.504c-2.428-0.947-4.556-2.369-6.362-4.266
			c-1.813-1.896-3.255-4.275-4.313-7.115c-1.062-2.849-1.591-6.17-1.591-9.957c0-3.188,0.419-6.158,1.254-8.914
			c0.836-2.767,2.096-5.178,3.771-7.246c1.672-2.063,3.766-3.691,6.272-4.898c2.515-1.194,5.441-1.795,8.793-1.795
			c3.402,0,6.359,0.601,8.867,1.795c2.516,1.207,4.609,2.826,6.279,4.855c1.676,2.039,2.915,4.451,3.724,7.242
			c0.815,2.789,1.219,5.772,1.219,8.961c0,3.461-0.477,6.58-1.43,9.373c-0.941,2.789-2.297,5.184-4.054,7.194
			s-3.886,3.562-6.359,4.646C849.439,450.382,846.695,450.917,843.682,450.917z M858.41,428.078c0-2.572-0.274-4.967-0.839-7.199
			c-0.559-2.229-1.419-4.176-2.594-5.82c-1.172-1.645-2.681-2.94-4.519-3.891c-1.848-0.953-4.101-1.424-6.778-1.424
			c-2.625,0-4.869,0.518-6.737,1.551c-1.871,1.031-3.396,2.396-4.563,4.098c-1.172,1.703-2.038,3.654-2.596,5.861
			c-0.558,2.205-0.838,4.475-0.838,6.824c0,2.672,0.32,5.141,0.965,7.406c0.642,2.258,1.574,4.192,2.802,5.813
			c1.232,1.619,2.766,2.877,4.606,3.766c1.839,0.896,3.96,1.345,6.36,1.345c2.617,0,4.867-0.521,6.737-1.552
			c1.865-1.03,3.388-2.411,4.562-4.139c1.173-1.731,2.033-3.686,2.592-5.861C858.135,432.679,858.41,430.416,858.41,428.078z"/>
		<path d="M878.003,449.753h-5.021v-43.361h5.021v6.027c2.005-2.115,4.084-3.848,6.23-5.188c2.15-1.339,4.729-2.011,7.74-2.011
			c2.682,0,5.165,0.461,7.449,1.379c2.291,0.923,4.219,2.525,5.774,4.816c1.063,1.564,1.69,3.164,1.884,4.814
			c0.195,1.647,0.293,3.358,0.293,5.145v28.379h-5.022v-28.293c0-3.908-0.86-6.836-2.589-8.791
			c-1.729-1.953-4.607-2.928-8.622-2.928c-1.564,0-2.982,0.233-4.272,0.713c-1.281,0.473-2.439,1.102-3.476,1.879
			c-1.03,0.781-1.905,1.676-2.637,2.684c-0.726,1-1.282,2.064-1.67,3.177c-0.504,1.397-0.813,2.739-0.924,4.021
			c-0.112,1.285-0.161,2.674-0.161,4.182L878.003,449.753L878.003,449.753z"/>
		<path d="M922.442,436.193c0.78,3.737,2.19,6.377,4.227,7.905c2.04,1.541,4.953,2.308,8.751,2.308c1.841,0,3.428-0.228,4.766-0.666
			c1.344-0.453,2.442-1.053,3.312-1.81c0.866-0.748,1.518-1.604,1.969-2.549c0.444-0.951,0.667-1.957,0.667-3.014
			c0-2.119-0.684-3.699-2.051-4.73c-1.365-1.032-3.082-1.84-5.147-2.424c-2.062-0.59-4.295-1.094-6.692-1.512
			c-2.403-0.416-4.635-1.043-6.701-1.887c-2.063-0.83-3.778-2.029-5.146-3.595c-1.365-1.561-2.053-3.768-2.053-6.612
			c0-3.625,1.328-6.601,3.981-8.912c2.646-2.314,6.398-3.476,11.255-3.476c4.687,0,8.496,1.049,11.428,3.14
			c2.928,2.094,4.697,5.594,5.313,10.504h-5.104c-0.449-3.351-1.718-5.701-3.812-7.068c-2.096-1.371-4.729-2.055-7.91-2.055
			c-3.183,0-5.608,0.684-7.282,2.055c-1.67,1.367-2.509,3.164-2.509,5.396c0,1.952,0.681,3.442,2.049,4.475
			c1.367,1.033,3.087,1.871,5.148,2.516c2.063,0.64,4.298,1.209,6.696,1.72c2.397,0.494,4.627,1.213,6.693,2.127
			c2.063,0.926,3.78,2.166,5.148,3.727c1.363,1.563,2.048,3.742,2.048,6.529c0,2.065-0.443,3.895-1.337,5.481
			c-0.896,1.595-2.119,2.916-3.687,3.98c-1.563,1.053-3.416,1.852-5.563,2.387c-2.15,0.523-4.507,0.785-7.075,0.785
			c-2.563,0-4.839-0.369-6.819-1.125c-1.979-0.754-3.67-1.797-5.063-3.139c-1.396-1.34-2.485-2.9-3.268-4.689
			c-0.781-1.785-1.229-3.711-1.339-5.772H922.442z"/>
	</g>
</g>
<g>
	<path fill="#EB2F2F" d="M849.376,0.299c-4.704,8.324-9.014,16.094-13.462,23.782c-14.43,24.965-28.702,50.024-43.454,74.795
		c-9.008,15.12-22.896,23.038-40.461,23.357c-21.838,0.4-43.68,0.095-65.527,0.103c-1.373,0-2.771-0.063-4.131,0.129
		c-11.721,1.665-16.106,10.791-10.104,21.656c6.177,11.195,12.741,22.176,19.132,33.248c4.833,8.363,9.693,16.702,14.464,25.091
		c1.216,2.138,2.141,4.434,3.551,7.384c-2.053,0-3.373,0-4.688,0c-60.378,0-120.751-0.018-181.129,0.055
		c-2.835,0.003-4.188-0.76-5.589-3.461c-3.518-6.771-7.8-13.144-11.678-19.732c-8.264-14.048-16.952-27.875-24.545-42.276
		c-7.748-14.69-7.723-30.18,0.396-44.713c14.364-25.717,29.17-51.201,44.286-76.486c9.125-15.268,23.428-23.053,41.048-23.095
		c92.632-0.225,185.268-0.104,277.899-0.096C846.487,0.04,847.583,0.178,849.376,0.299z"/>
	<path fill="#EB2F2F" d="M1176.098,0.33c-4.578,8.102-8.874,15.846-13.303,23.511c-14.489,25.082-28.799,50.269-43.63,75.144
		c-8.931,14.98-22.765,22.878-40.165,23.237c-22.087,0.452-44.186,0.096-66.282,0.134c-1.858,0.003-3.762,0.177-5.577,0.586
		c-9.175,2.056-13.107,9.102-9.621,17.839c1.668,4.159,4.113,8.021,6.356,11.93c9.495,16.526,19.063,33.007,28.558,49.537
		c1.283,2.233,2.255,4.646,3.666,7.596c-2.101,0-3.443,0-4.788,0c-60.132,0-120.269-0.025-180.401,0.063
		c-3.243,0.003-5.079-0.611-6.385-3.997c-1.471-3.806-4.119-7.146-6.223-10.707c-9.838-16.619-20.07-33.011-29.358-49.931
		c-8.225-14.965-8.275-30.797,0.041-45.712c14.351-25.732,29.134-51.233,44.295-76.494c9.151-15.233,23.516-22.902,41.151-22.94
		c92.646-0.199,185.298-0.094,277.947-0.082C1173.469,0.042,1174.555,0.205,1176.098,0.33z"/>
	<path fill="#EB2F2F" d="M94.097,209.627c8.868-15.354,17.329-30.002,25.784-44.652c26.893-46.577,53.776-93.163,80.674-139.738
		c9.626-16.67,24.335-25.093,43.341-25.128c92.381-0.172,184.763-0.078,277.144-0.078c1.228,0,2.456,0,4.487,0
		c-0.914,1.794-1.444,2.973-2.09,4.084c-18.645,31.946-37.031,64.041-56.066,95.753c-8.486,14.145-21.92,22.008-38.38,22.26
		c-36.144,0.55-72.301-0.059-108.446,0.311c-17.442,0.177-31.186,8.338-40.169,23.214c-12.179,20.173-23.716,40.738-35.397,61.206
		c-1.311,2.296-2.763,3.035-5.312,3.031c-47.069-0.065-94.141-0.047-141.209-0.055C97.245,209.837,96.037,209.724,94.097,209.627z"
		/>
	<path fill="#EB2F2F" d="M711.825,225.844c-0.277,8.404-1.632,16.051-5.709,23.072c-14.802,25.486-29.312,51.143-44.438,76.428
		c-8.729,14.596-22.42,22.699-39.288,22.762c-93.538,0.33-187.072,0.158-280.607,0.158c-0.749,0-1.499,0-2.787,0
		c0.585-1.238,0.961-2.205,1.473-3.104c18.547-32.154,36.85-64.455,55.775-96.387c8.583-14.479,22.284-21.541,39.001-22.74
		c0.379-0.031,0.757-0.003,1.135-0.003c90.396-0.063,180.789-0.125,271.184-0.186C708.911,225.844,710.265,225.844,711.825,225.844z
		"/>
	<path fill="#EB2F2F" d="M12.094,348.262c7.724-13.396,15.035-26.093,22.357-38.783c11.467-19.863,22.763-39.84,34.472-59.562
		c9.071-15.28,22.95-23.695,40.617-23.761c90.356-0.337,180.713-0.252,271.071-0.313c1.25,0,2.5,0,4.272,0
		c0.528,8.212-1.257,15.704-5.175,22.692c-4.722,8.42-9.603,16.748-14.441,25.096c-9.878,17.025-19.568,34.158-29.718,51.02
		c-9.171,15.232-23.108,23.455-40.779,23.502c-92.746,0.24-185.489,0.111-278.234,0.111
		C15.308,348.262,14.077,348.262,12.094,348.262z"/>
	<path fill="#EB2F2F" d="M1038.264,225.844c0.267,8.211-1.177,15.639-5.08,22.416c-14.95,25.961-29.656,52.076-45.147,77.719
		c-8.526,14.115-22.092,22.056-38.501,22.117c-93.628,0.353-187.255,0.168-280.891,0.168c-0.827,0-1.66,0-3.065,0
		c1.269-2.332,2.223-4.188,3.271-6.004c17.546-30.402,35.039-60.834,52.675-91.182c9.632-16.578,24.255-24.983,43.369-25.014
		c89.484-0.145,178.973-0.159,268.456-0.22C1034.85,225.844,1036.346,225.844,1038.264,225.844z"/>
</g>
</svg>
